<svg width="24" height="24" viewBox="0 0 24 24" fill="none" xmlns="http://www.w3.org/2000/svg">
<g id="Button 1">
<path id="Vector" fill-rule="evenodd" clip-rule="evenodd" d="M8.29279 12.3763C8.10532 12.1888 8 11.9345 8 11.6693C8 11.4041 8.10532 11.1498 8.29279 10.9623L13.9498 5.30529C14.042 5.20978 14.1524 5.1336 14.2744 5.08119C14.3964 5.02878 14.5276 5.00119 14.6604 5.00004C14.7932 4.99888 14.9248 5.02419 15.0477 5.07447C15.1706 5.12475 15.2823 5.199 15.3762 5.29289C15.4701 5.38679 15.5443 5.49844 15.5946 5.62133C15.6449 5.74423 15.6702 5.87591 15.669 6.00869C15.6679 6.14147 15.6403 6.27269 15.5879 6.39469C15.5355 6.5167 15.4593 6.62704 15.3638 6.71929L10.4138 11.6693L15.3638 16.6193C15.5459 16.8079 15.6467 17.0605 15.6445 17.3227C15.6422 17.5849 15.537 17.8357 15.3516 18.0211C15.1662 18.2065 14.9154 18.3117 14.6532 18.314C14.391 18.3162 14.1384 18.2154 13.9498 18.0333L8.29279 12.3763Z" fill="#111111"/>
</g>
</svg>
