<svg width="10" height="10" viewBox="0 0 10 10" fill="none" xmlns="http://www.w3.org/2000/svg">
<path d="M0.800016 5C0.796871 6.30466 1.25519 7.36007 2.04066 8.08821C2.82426 8.8146 3.91672 9.2 5.15699 9.2C7.3837 9.2 8.92608 7.95847 9.19723 6.34497L9.23641 6.11183H9H7.35479H7.19718L7.16033 6.26507C6.9695 7.05865 6.20531 7.54194 5.18211 7.54194C4.4844 7.54194 3.9041 7.31879 3.49885 6.90278C3.09353 6.48672 2.84222 5.85602 2.84523 5.0007L2.84522 4.99929C2.84223 4.1578 3.09177 3.52651 3.49712 3.10665C3.9022 2.68707 4.48262 2.45806 5.18211 2.45806C6.22869 2.45806 6.99014 2.96053 7.15899 3.77193L7.19212 3.93118H7.35479H9H9.23529L9.19739 3.69896C8.89376 1.83878 7.22769 0.8 5.15699 0.8C3.92601 0.8 2.83379 1.18411 2.04803 1.9095C1.26028 2.63671 0.796871 3.69211 0.800016 5ZM0.800016 5C0.800017 5.00017 0.800017 5.00033 0.800017 5.0005L1.00002 5L0.800017 4.9995C0.800017 4.99967 0.800017 4.99983 0.800016 5ZM9 6.31183V6.51183H8.95889C8.97497 6.44583 8.98869 6.37913 9 6.31183ZM9 6.31183L8.80277 6.27868C8.80091 6.28975 8.79898 6.30079 8.79697 6.31183H9Z" fill="white" stroke="white" stroke-width="0.4"/>
</svg>
