<svg width="16" height="16" viewBox="0 0 16 16" fill="none" xmlns="http://www.w3.org/2000/svg">
<path d="M7.52941 0C8.53831 -4.19529e-06 9.53693 0.202752 10.4659 0.596227C11.3949 0.989701 12.2354 1.56587 12.9374 2.2905C13.6394 3.01514 14.1886 3.87347 14.5524 4.8145C14.9161 5.75553 15.0871 6.76008 15.0551 7.76847C14.7625 7.52733 14.4444 7.31903 14.1064 7.14729C14.0488 6.15809 13.7688 5.1946 13.2873 4.32858C12.8058 3.46256 12.1351 2.71631 11.3253 2.14538C10.5154 1.57445 9.58718 1.19355 8.60972 1.03105C7.63225 0.868545 6.63072 0.928618 5.67968 1.2068C4.72865 1.48497 3.85261 1.97409 3.1168 2.63773C2.38098 3.30137 1.80433 4.12244 1.42979 5.03981C1.05525 5.95718 0.892459 6.94722 0.953542 7.93621C1.01462 8.92521 1.29801 9.88769 1.78259 10.752C1.82644 10.8302 1.84701 10.9194 1.84188 11.0089L1.82871 11.0974L1.11718 13.9407L3.96329 13.2311C4.02115 13.2168 4.08119 13.2136 4.14024 13.2216L4.22588 13.2414L4.30777 13.2781C5.17365 13.7647 6.14023 14.0499 7.14729 14.1064C7.31953 14.4461 7.52847 14.7642 7.76847 15.0551C6.50674 15.0968 5.25489 14.8194 4.12894 14.2485L4.01506 14.1882L0.584471 15.0447C0.518448 15.0613 0.44961 15.0634 0.382705 15.0508C0.315801 15.0382 0.252425 15.0113 0.196949 14.9718C0.141473 14.9323 0.0952196 14.8813 0.0613796 14.8222C0.0275396 14.7632 0.00691901 14.6975 0.000941108 14.6296V14.5525L0.0141177 14.4744L0.870588 11.0447L0.811294 10.9318C0.380597 10.0839 0.115473 9.16173 0.0301177 8.21459L0.00658821 7.85506L0 7.52941C0 5.53249 0.793275 3.61735 2.20531 2.20531C3.61735 0.793275 5.53249 0 7.52941 0ZM16 11.7647C16 12.888 15.5538 13.9652 14.7595 14.7595C13.9652 15.5538 12.888 16 11.7647 16C10.6414 16 9.56417 15.5538 8.7699 14.7595C7.97563 13.9652 7.52941 12.888 7.52941 11.7647C7.52941 10.6414 7.97563 9.56417 8.7699 8.7699C9.56417 7.97563 10.6414 7.52941 11.7647 7.52941C12.888 7.52941 13.9652 7.97563 14.7595 8.7699C15.5538 9.56417 16 10.6414 16 11.7647ZM12.2353 9.88235C12.2353 9.75755 12.1857 9.63785 12.0975 9.5496C12.0092 9.46134 11.8895 9.41177 11.7647 9.41177C11.6399 9.41177 11.5202 9.46134 11.4319 9.5496C11.3437 9.63785 11.2941 9.75755 11.2941 9.88235V11.2941H9.88235C9.75755 11.2941 9.63785 11.3437 9.5496 11.4319C9.46134 11.5202 9.41177 11.6399 9.41177 11.7647C9.41177 11.8895 9.46134 12.0092 9.5496 12.0975C9.63785 12.1857 9.75755 12.2353 9.88235 12.2353H11.2941V13.6471C11.2941 13.7719 11.3437 13.8916 11.4319 13.9798C11.5202 14.0681 11.6399 14.1176 11.7647 14.1176C11.8895 14.1176 12.0092 14.0681 12.0975 13.9798C12.1857 13.8916 12.2353 13.7719 12.2353 13.6471V12.2353H13.6471C13.7719 12.2353 13.8916 12.1857 13.9798 12.0975C14.0681 12.0092 14.1176 11.8895 14.1176 11.7647C14.1176 11.6399 14.0681 11.5202 13.9798 11.4319C13.8916 11.3437 13.7719 11.2941 13.6471 11.2941H12.2353V9.88235Z" fill="black"/>
</svg>
